<svg width="149" height="51" viewBox="0 0 149 51" fill="none" xmlns="http://www.w3.org/2000/svg">
<path d="M20.584 0.363281C21.0879 0.609375 21.5215 0.966797 21.8848 1.43555C20.7715 6.45117 20.2148 10.3594 20.2148 13.1602C20.2148 18.0234 20.4961 20.6191 21.0586 20.9473C20.8945 21.4512 20.8125 21.7676 20.8125 21.8965C21.9258 29.7715 23.8008 37.2656 26.4375 44.3789C27.7266 47.7305 28.8047 49.4062 29.6719 49.4062L29.7949 49.6523V50.0039C29.4199 50.5664 28.8984 50.8477 28.2305 50.8477C26.5898 50.8477 25.1953 49.0547 24.0469 45.4688C22.9336 42.8086 21.416 37.5059 19.4941 29.5605L18.1758 22.7402C18.0234 22.6582 17.9062 22.6172 17.8242 22.6172C14.332 22.3008 11.8594 22.1426 10.4062 22.1426C9.25781 24.1582 7.18359 28.2656 4.18359 34.4648C3.16406 36.7734 2.25 37.9277 1.44141 37.9277H1.31836C0.439453 37.8105 0 37.6113 0 37.3301V36.8555C0.667969 36.1641 1.82227 33.9668 3.46289 30.2637L7.54102 22.248C7.38867 22.1777 7.26562 22.1426 7.17188 22.1426C6.38672 22.1426 4.75195 22.1777 2.26758 22.248C1.31836 21.9199 0.84375 21.4043 0.84375 20.7012C0.84375 20.1387 1.11914 19.8574 1.66992 19.8574H1.91602C1.99805 19.8574 2.03906 19.8984 2.03906 19.9805L2.26758 19.8574H2.39062C2.63672 19.8574 2.75977 19.8984 2.75977 19.9805C3.52148 19.8281 4.59375 19.752 5.97656 19.752H8.73633C9.66211 18.498 10.377 17.1387 10.8809 15.6738C11.209 15.3574 11.9297 14.0801 13.043 11.8418L19.6172 0.837891C20.0742 0.521484 20.3965 0.363281 20.584 0.363281ZM11.7246 19.752V19.8574C14.584 20.1855 16.6172 20.3496 17.8242 20.3496C17.8242 20.1504 17.7422 18.1934 17.5781 14.4785V13.5293C17.5781 11.6074 17.7012 9.97266 17.9473 8.625C17.7012 8.625 16.541 10.459 14.4668 14.127C12.6387 17.5371 11.7246 19.4121 11.7246 19.752ZM34.3477 27.5039C36.0117 27.7266 36.8438 28.3184 36.8438 29.2793C36.8438 30.6152 36.1348 31.7637 34.7168 32.7246C33.416 33.8262 32.0332 34.377 30.5684 34.377H30.0938C29.0625 34.2246 28.4297 34.0312 28.1953 33.7969H28.0723L27.9668 34.623V35.2031C27.9668 36.1289 28.5586 36.6855 29.7422 36.873C31.3711 36.873 35.0801 35.4082 40.8691 32.4785C41.5723 32.0918 42.1641 31.8984 42.6445 31.8984C42.9609 32.0156 43.1191 32.1328 43.1191 32.25V33.0762C42.2402 34.1777 41.1328 35.0449 39.7969 35.6777C35.1797 37.8926 31.8281 39 29.7422 39C27.9023 39 26.5547 38.0918 25.6992 36.2754C25.5469 35.8535 25.4707 35.3027 25.4707 34.623C25.4707 32.1973 27.0527 30.1055 30.2168 28.3477C32.1855 27.7852 33.5625 27.5039 34.3477 27.5039ZM28.8984 32.4785H29.0215C31.0137 32.4785 32.7129 31.6113 34.1191 29.877V29.6484H33.9961C32.3906 29.6484 30.6914 30.5156 28.8984 32.25V32.4785ZM47.0391 10.9629H47.3906C48.1055 10.9629 48.6621 11.2852 49.0605 11.9297C49.0605 14.4375 48.1875 18.123 46.4414 22.9863C46.4414 23.1035 46.125 24.0586 45.4922 25.8516C47.9766 24.1055 49.2832 23.2324 49.4121 23.2324C49.541 23.1504 49.7402 23.1094 50.0098 23.1094H50.3613C50.5254 23.1328 50.6074 23.209 50.6074 23.3379V24.5332C48.7441 26.5723 46.998 28.043 45.3691 28.9453H45.0176C45.4629 32.3555 45.9375 34.6934 46.4414 35.959C46.8984 36.5449 47.1738 36.9023 47.2676 37.0312C48.8027 37.0312 50.9883 35.0859 53.8242 31.1953C53.918 31.1953 54.1934 30.8789 54.6504 30.2461C55.6816 29.0508 56.4375 28.4531 56.918 28.4531H57.1465C57.3809 28.5352 57.498 28.7754 57.498 29.1738C57.498 30.041 56.1504 32.1855 53.4551 35.6074C51.9785 37.8223 50.1973 38.9297 48.1113 38.9297C46.2363 38.9297 44.8477 38.1797 43.9453 36.6797C43.5469 35.7773 43.1895 34.2305 42.873 32.0391H42.75L40.4824 35.959C40.4824 36.3105 40.248 36.668 39.7793 37.0312C38.2676 39.7266 36.7207 41.0742 35.1387 41.0742L35.0156 40.8281V40.4766C37.6523 36.7969 39.832 32.8711 41.5547 28.6992C41.4844 28.5586 41.4492 28.4004 41.4492 28.2246C41.4492 27.8496 41.7246 27.4922 42.2754 27.1523C45.1348 19.9922 46.5645 14.7949 46.5645 11.5605V11.4375C46.5645 11.3203 46.7227 11.1621 47.0391 10.9629ZM68.9238 27.3633C69.8027 27.6211 70.2422 28.0605 70.2422 28.6816V29.1562L67.4824 33.6035C66.7559 34.7402 66.3926 35.5371 66.3926 35.9941V36.4863L66.9902 36.6094H67.2363C68.3027 36.6094 70.2598 35.8066 73.1074 34.2012C73.834 33.6387 74.5137 33.3574 75.1465 33.3574L75.3926 33.7266V34.6758C74.5137 36.0234 73.2363 37.0254 71.5605 37.6816C69.8965 38.5605 68.4551 39 67.2363 39C65.7363 39 64.6172 38.3203 63.8789 36.9609V35.9941H63.6328C61.6289 37.6816 59.8301 38.5254 58.2363 38.5254H57.7617C56.6602 38.5254 55.7402 37.7227 55.002 36.1172V34.7988C55.002 33.0645 56.4785 31.1484 59.4316 29.0508C61.4355 28.1719 62.918 27.7324 63.8789 27.7324H65.0742C66.1172 27.8262 66.6387 28.2246 66.6387 28.9277V29.0508C66.6387 29.3672 65.5605 29.5664 63.4043 29.6484C60.4043 30.8789 58.7227 32.0391 58.3594 33.1289C57.9727 33.4453 57.6504 34.2422 57.3926 35.5195C57.5098 36.082 57.6738 36.3633 57.8848 36.3633H58.2363C59.6777 36.1172 62.1152 34.3945 65.5488 31.1953C66.709 29.6484 67.4297 28.4941 67.7109 27.7324C68.2852 27.4863 68.6895 27.3633 68.9238 27.3633ZM114.451 0.433594H114.662C114.732 0.433594 114.768 0.46875 114.768 0.539062L114.996 0.433594H115.102C119.168 0.433594 122.572 2.51367 125.314 6.67383C125.959 8.12695 126.281 9.31055 126.281 10.2246C126.281 13.7637 123.486 17.5605 117.896 21.6152C117.439 22.1191 115.5 23.3027 112.078 25.166C111.211 25.5762 110.461 25.9688 109.828 26.3438L103.482 29.1387C102.475 29.502 100.863 29.9355 98.6484 30.4395C98.2852 31.248 97.7461 32.25 97.0312 33.4453C95.0977 36.9258 93.1641 39.8672 91.2305 42.2695C90.3398 42.5508 89.6953 42.6914 89.2969 42.6914H88.9629C88.752 42.6211 88.6465 42.4043 88.6465 42.041C90.2637 40.2363 92.5547 36.5449 95.5195 30.9668H93.1641C90.8906 30.7559 88.418 29.7891 85.7461 28.0664C84.2344 26.625 83.4082 25.4766 83.2676 24.6211L83.584 24.4102H83.6895C84.1113 24.5859 84.7207 25.125 85.5176 26.0273C88.2832 28.2422 90.8672 29.3496 93.2695 29.3496C94.1836 29.2793 94.6875 29.209 94.7812 29.1387L94.9922 29.2441C96.293 29.2441 97.043 28.8164 97.2422 27.9609C100.594 21.9609 102.855 17.3379 104.027 14.0918C105.82 9.52148 106.717 6.22266 106.717 4.19531C106.717 4.08984 106.822 3.98438 107.033 3.87891C108.533 3.87891 109.283 4.30664 109.283 5.16211C109.283 8.25586 107.244 13.9922 103.166 22.3711C102.709 22.9688 101.701 24.832 100.143 27.9609H100.266C105.41 26.2969 110.607 23.7539 115.857 20.332C118.986 17.9883 121.277 15.6562 122.73 13.3359C123.48 12.1055 123.914 10.957 124.031 9.89062C124.031 7.91016 122.883 5.97656 120.586 4.08984C118.922 2.94141 116.912 2.36719 114.557 2.36719C111.264 2.36719 107.502 3.29883 103.271 5.16211C103.107 5.36133 102.428 5.75391 101.232 6.33984C99.5566 7.34766 97.4766 9.07031 94.9922 11.5078C93.6445 13.0078 92.8887 14.2969 92.7246 15.375C92.4902 15.5156 92.2793 15.5859 92.0918 15.5859C91.084 15.4922 90.5801 15.0645 90.5801 14.3027C91.0723 11.4785 94.2246 8.14453 100.037 4.30078C104.889 1.72266 109.693 0.433594 114.451 0.433594ZM113.221 27.5215H114.012C114.914 28.084 115.365 28.623 115.365 29.1387C116.127 29.877 117.258 30.2461 118.758 30.2461C119.578 30.2461 120.557 30.1113 121.693 29.8418C122.443 29.8418 122.818 30.1113 122.818 30.6504C122.291 31.5879 120.973 32.0566 118.863 32.0566C117.516 31.9277 116.537 31.7578 115.928 31.5469C115.928 32.9297 114.803 34.8105 112.553 37.1895C111.428 38.3965 110.068 39 108.475 39H108.246C106.816 38.6602 106.102 38.0215 106.102 37.084C106.031 37.002 105.996 36.7676 105.996 36.3809V36.082C105.996 34.6055 107.162 32.5254 109.494 29.8418C111.229 28.2949 112.471 27.5215 113.221 27.5215ZM108.369 36.7852L108.598 37.1895C109.852 36.8145 111.316 35.3379 112.992 32.7598C113.145 32.5137 113.332 31.9746 113.555 31.1426C113.32 30.4043 113.098 30.0352 112.887 30.0352C109.875 32.4141 108.369 34.6641 108.369 36.7852ZM124.629 27.3105C125.789 27.3105 126.633 27.6973 127.16 28.4707V28.998C127.16 29.0918 126.984 29.2676 126.633 29.5254H126.422C126.012 29.5254 125.59 29.3848 125.156 29.1035H123.891C122.695 29.748 121.992 30.416 121.781 31.1074C121.781 31.5059 122.836 31.9277 124.945 32.373C126.141 32.8887 126.738 33.6914 126.738 34.7812L126.633 35.3086C129.867 33.5625 131.725 32.6895 132.205 32.6895C132.346 32.7129 132.416 32.7832 132.416 32.9004V33.5332C132.416 34.2012 131.326 35.1094 129.146 36.2578C126.908 37.5703 124.031 38.4492 120.516 38.8945L120.305 38.7891C119.262 38.9297 118.107 39 116.842 39C115.787 39 115.014 38.7188 114.521 38.1562V37.7344C114.521 37.6406 114.627 37.5352 114.838 37.418H116.736C119.549 37.418 121.934 36.6445 123.891 35.0977C124.242 34.7344 124.418 34.4238 124.418 34.166C124.113 33.9785 122.953 33.5918 120.938 33.0059C119.953 32.3262 119.461 31.623 119.461 30.8965C119.461 29.5371 120.586 28.377 122.836 27.416C123.656 27.3457 124.254 27.3105 124.629 27.3105ZM141.293 12.668H141.732C142.33 12.668 142.629 13.0781 142.629 13.8984C141.117 17.0742 138.762 21.6738 135.562 27.6973C135.41 27.9434 135.334 28.1309 135.334 28.2598C137.549 26.2441 139.494 25.2363 141.17 25.2363C142.143 25.2363 142.816 25.7227 143.191 26.6953V27.4863C143.191 28.3066 142.518 29.7246 141.17 31.7402C139.576 33.7207 138.492 35.291 137.918 36.4512V36.5742C138.047 36.8672 138.311 37.0137 138.709 37.0137C140.186 37.0137 142.354 35.332 145.213 31.9688L146.566 30.7383L147.691 29.8418H148.025C148.166 29.8418 148.312 30.0645 148.465 30.5098C148.465 31.5879 146.818 33.7207 143.525 36.9082C141.697 38.3262 140.279 39.0352 139.271 39.0352H139.148C137.086 39.0352 135.891 38.3613 135.562 37.0137V36.7852C135.562 35.6133 136.723 33.6328 139.043 30.8438C140.238 28.9688 140.836 27.8086 140.836 27.3633H140.73C139.863 27.3633 138.439 28.3008 136.459 30.1758C133.213 33.4805 131.455 35.6133 131.186 36.5742C130.893 36.7148 130.635 36.7852 130.412 36.7852C129.908 36.7852 129.457 36.4863 129.059 35.8887V35.1152C130.289 33.4277 131.484 31.2949 132.645 28.7168C133.816 26.3145 135.053 23.918 136.354 21.5273C138.627 17.1562 140.197 14.2793 141.064 12.8965C141.088 12.7441 141.164 12.668 141.293 12.668Z" fill="#613228"/>
</svg>
