<svg version="1.1"
     baseProfile="full"
     xmlns="http://www.w3.org/2000/svg"
>

  <symbol id="wpp" viewBox="0 0 24 24">
    <g clip-path="url(#clip0)">
      <path d="M20.5911 3.40887C18.3928 1.21051 15.4706 0 12.3615 0C12.3613 0 12.3605 0 12.3604 0C10.8226 0.000183105 9.3241 0.297913 7.90668 0.885132C6.48908 1.47235 5.21906 2.32141 4.13159 3.40887C1.93341 5.60706 0.722903 8.52979 0.722903 11.6385C0.722903 13.4925 1.17023 15.3349 2.01782 16.9764L0.0615262 22.5652C-0.0763522 22.9594 0.021243 23.3879 0.316775 23.6832C0.523501 23.8901 0.795596 24 1.07538 24C1.19532 24 1.31653 23.9799 1.43482 23.9385L7.02356 21.9824C8.6651 22.83 10.5075 23.2773 12.3615 23.2773C15.4702 23.2773 18.3928 22.0666 20.5911 19.8684C22.7893 17.6702 24 14.7475 24 11.6387C24 8.52979 22.7895 5.60706 20.5911 3.40887ZM19.5958 18.873C17.6635 20.8055 15.0941 21.8696 12.3615 21.8696C10.6897 21.8696 9.02893 21.4561 7.5586 20.6735C7.292 20.5318 6.97687 20.5074 6.69397 20.6065L1.61646 22.3835L3.39368 17.306C3.49274 17.0228 3.4682 16.7076 3.32648 16.4412C2.54407 14.9713 2.13043 13.3105 2.13043 11.6385C2.13043 8.90588 3.19464 6.33655 5.12696 4.40424C7.05908 2.47211 9.62805 1.4079 12.3605 1.40753H12.3615C15.0943 1.40753 17.6635 2.47174 19.5958 4.40424C21.5283 6.33655 22.5925 8.9057 22.5925 11.6385C22.5925 14.3714 21.5283 16.9407 19.5958 18.873Z" fill="#613228"/>
      <path d="M16.6866 12.6782C16.1512 12.1428 15.28 12.1428 14.7446 12.6782L14.159 13.2638C12.705 12.4715 11.5283 11.2949 10.7358 9.84082L11.3214 9.25525C11.857 8.71985 11.857 7.84863 11.3214 7.31323L9.74341 5.73523C9.20801 5.19983 8.3368 5.19983 7.8014 5.73523L6.53907 6.99756C5.81598 7.72064 5.77991 8.96375 6.43744 10.498C7.00837 11.8301 8.05317 13.2942 9.3794 14.6204C10.7056 15.9467 12.1697 16.9915 13.5018 17.5624C14.2308 17.8748 14.8938 18.0306 15.4667 18.0306C16.0997 18.0306 16.6227 17.8403 17.0023 17.4608L18.2646 16.1982V16.1984C18.5241 15.939 18.6669 15.5942 18.6669 15.2274C18.6669 14.8605 18.5241 14.5157 18.2646 14.2564L16.6866 12.6782ZM16.0069 16.4654C15.8005 16.6718 15.1659 16.7441 14.0565 16.2687C12.885 15.7667 11.5774 14.8277 10.3748 13.6251C9.17213 12.4224 8.23334 11.1151 7.73127 9.94354C7.25574 8.83411 7.32807 8.19928 7.53443 7.99292L8.77259 6.75476L10.3019 8.28424L9.56891 9.0174C9.23749 9.34882 9.15748 9.85144 9.37006 10.2682C10.3337 12.1578 11.842 13.6661 13.7316 14.6298C14.1486 14.8423 14.6512 14.7625 14.9826 14.4309L15.7156 13.6979L17.2451 15.2274L16.0069 16.4654Z" fill="#613228"/>
    </g>
    <defs>
      <clipPath id="clip0">
        <rect width="24" height="24" fill="white"/>
      </clipPath>
    </defs>
  </symbol>

  <symbol id="phone" viewBox="0 0 24 24">
    <g clip-path="url(#clip0)">
      <path d="M4.89054 15.9536C7.25771 18.7833 10.1073 21.0112 13.3597 22.5877C14.598 23.1745 16.254 23.8707 18.099 23.9901C18.2134 23.995 18.3228 24 18.4372 24C19.6754 24 20.6701 23.5723 21.4807 22.6921C21.4856 22.6871 21.4956 22.6772 21.5006 22.6672C21.789 22.3191 22.1172 22.0058 22.4604 21.6726C22.6941 21.4488 22.9328 21.2151 23.1616 20.9764C24.2208 19.8724 24.2208 18.47 23.1516 17.4007L20.1628 14.4119C19.6556 13.8848 19.0488 13.6063 18.4123 13.6063C17.7757 13.6063 17.1641 13.8848 16.6419 14.407L14.8615 16.1873C14.6974 16.0928 14.5283 16.0083 14.3692 15.9287C14.1703 15.8293 13.9863 15.7348 13.8222 15.6303C12.2009 14.6009 10.7289 13.2582 9.32153 11.5325C8.61039 10.6324 8.13297 9.8765 7.79978 9.10568C8.26725 8.68297 8.70487 8.24037 9.12758 7.80771C9.27678 7.65354 9.43094 7.49938 9.58511 7.34521C10.1222 6.80812 10.4106 6.18649 10.4106 5.55491C10.4106 4.92333 10.1272 4.3017 9.58511 3.76461L8.10313 2.28264C7.92908 2.10858 7.76497 1.93949 7.59588 1.76544C7.26766 1.42727 6.92452 1.07915 6.58635 0.765852C6.07412 0.263572 5.47238 0 4.83583 0C4.20425 0 3.59754 0.263572 3.06542 0.770825L1.2055 2.63075C0.529159 3.30709 0.146234 4.12764 0.0666646 5.0775C-0.0278236 6.26606 0.190991 7.52922 0.75792 9.05595C1.62821 11.4182 2.94109 13.6113 4.89054 15.9536ZM1.28009 5.18193C1.33977 4.52051 1.59339 3.9685 2.07081 3.49109L3.92079 1.64111C4.20923 1.36262 4.5275 1.2184 4.83583 1.2184C5.13919 1.2184 5.44752 1.36262 5.73098 1.65106C6.06418 1.95939 6.37748 2.28264 6.71565 2.62578C6.88473 2.79983 7.05879 2.97389 7.23285 3.15292L8.71482 4.63489C9.02315 4.94322 9.18229 5.25653 9.18229 5.56486C9.18229 5.87319 9.02315 6.18649 8.71482 6.49482C8.56066 6.64898 8.40649 6.80812 8.25233 6.96229C7.78983 7.42976 7.35717 7.87236 6.87976 8.29507C6.86981 8.30501 6.86484 8.30999 6.8549 8.31993C6.44213 8.7327 6.50678 9.12557 6.60624 9.42395C6.61122 9.43887 6.61619 9.44882 6.62116 9.46374C7.00409 10.3838 7.5362 11.259 8.36671 12.3034C9.85862 14.1434 11.4301 15.5707 13.1607 16.6697C13.3746 16.809 13.6033 16.9184 13.8172 17.0278C14.0161 17.1272 14.2001 17.2217 14.3642 17.3261C14.3841 17.3361 14.399 17.346 14.4189 17.356C14.583 17.4405 14.7422 17.4803 14.9013 17.4803C15.2992 17.4803 15.5578 17.2267 15.6423 17.1421L17.5022 15.2822C17.7907 14.9938 18.104 14.8396 18.4123 14.8396C18.7902 14.8396 19.0986 15.0734 19.2925 15.2822L22.2913 18.276C22.888 18.8728 22.8831 19.5193 22.2764 20.1509C22.0675 20.3746 21.8487 20.5885 21.6149 20.8123C21.2668 21.1504 20.9038 21.4986 20.5756 21.8914C20.0037 22.5081 19.3224 22.7965 18.4421 22.7965C18.3576 22.7965 18.2681 22.7915 18.1835 22.7866C16.5524 22.6821 15.0356 22.0456 13.8968 21.5035C10.8035 20.0066 8.08821 17.8831 5.83542 15.1877C3.98046 12.9548 2.73223 10.8761 1.9067 8.64816C1.39447 7.28056 1.20052 6.18152 1.28009 5.18193Z" fill="#613228"/>
    </g>
    <defs>
      <clipPath id="clip0">
        <rect width="24" height="24" fill="white"/>
      </clipPath>
    </defs>
  </symbol>

  <symbol id="arrow" viewBox="0 0 34 17">
    <path d="M29.3375 3.83759L28.5803 4.59485L31.95 7.96456H0V9.03551H31.95L28.5803 12.4052L29.3375 13.1624L34 8.5L29.3375 3.83759Z"/>
  </symbol>

  <symbol id="inst" viewBox="0 0 24 24">
    <path d="M17.5034 0H6.49657C2.9143 0 0 2.9143 0 6.49657V17.5036C0 21.0857 2.9143 24 6.49657 24H17.5036C21.0857 24 24 21.0857 24 17.5036V6.49657C24 2.9143 21.0857 0 17.5034 0V0ZM22.593 17.5036C22.593 20.3098 20.3098 22.593 17.5034 22.593H6.49657C3.69012 22.593 1.40698 20.3098 1.40698 17.5036V6.49657C1.40698 3.69012 3.69012 1.40698 6.49657 1.40698H17.5036C20.3098 1.40698 22.593 3.69012 22.593 6.49657V17.5036Z" fill="#613228"/>
    <path d="M11.9999 5.43768C8.3814 5.43768 5.43762 8.38146 5.43762 12C5.43762 15.6185 8.3814 18.5623 11.9999 18.5623C15.6184 18.5623 18.5622 15.6185 18.5622 12C18.5622 8.38146 15.6184 5.43768 11.9999 5.43768ZM11.9999 17.1553C9.1574 17.1553 6.8446 14.8427 6.8446 12C6.8446 9.15746 9.1574 6.84466 11.9999 6.84466C14.8426 6.84466 17.1553 9.15746 17.1553 12C17.1553 14.8427 14.8426 17.1553 11.9999 17.1553Z" fill="#613228"/>
    <path d="M18.7192 3.10712C17.6499 3.10712 16.7802 3.97705 16.7802 5.0462C16.7802 6.11553 17.6499 6.98547 18.7192 6.98547C19.7886 6.98547 20.6585 6.11553 20.6585 5.0462C20.6585 3.97687 19.7886 3.10712 18.7192 3.10712ZM18.7192 5.5783C18.4259 5.5783 18.1871 5.33953 18.1871 5.0462C18.1871 4.75268 18.4259 4.5141 18.7192 4.5141C19.0128 4.5141 19.2515 4.75268 19.2515 5.0462C19.2515 5.33953 19.0128 5.5783 18.7192 5.5783Z" fill="#613228"/>
  </symbol>

  <symbol id="youtube" viewBox="0 0 24 24">
    <g clip-path="url(#clip0)">
      <path d="M15.6941 10.9214L10.392 8.02033C10.0871 7.85352 9.72674 7.85974 9.42791 8.03681C9.12891 8.21405 8.95056 8.52716 8.95056 8.87469V14.6271C8.95056 14.973 9.12781 15.2856 9.4248 15.463C9.57989 15.5556 9.75183 15.6021 9.92413 15.6021C10.082 15.6021 10.2402 15.5631 10.3857 15.4848L15.6881 12.6337C16.0028 12.4643 16.1993 12.1371 16.2008 11.7795C16.202 11.4219 16.008 11.0932 15.6941 10.9214ZM10.357 13.9035V9.60418L14.3197 11.7725L10.357 13.9035Z" fill="#613228"/>
      <path d="M23.8234 7.19658L23.8223 7.18559C23.802 6.99242 23.5996 5.27416 22.7643 4.4002C21.7988 3.37225 20.7042 3.24737 20.1778 3.1875C20.1342 3.18256 20.0943 3.17798 20.0586 3.17322L20.0166 3.16882C16.8438 2.93811 12.0521 2.90662 12.0042 2.90643L12 2.90625L11.9957 2.90643C11.9478 2.90662 7.1561 2.93811 3.9547 3.16882L3.9124 3.17322C3.87834 3.17779 3.84081 3.18201 3.79997 3.18677C3.27959 3.24682 2.19671 3.37189 1.22845 4.43701C0.43286 5.30163 0.20288 6.98308 0.17926 7.17204L0.176513 7.19658C0.169372 7.27696 0 9.19059 0 11.1117V12.9076C0 14.8287 0.169372 16.7424 0.176513 16.8229L0.177795 16.835C0.198119 17.0251 0.400267 18.7119 1.23175 19.5862C2.13958 20.5797 3.28746 20.7112 3.90489 20.7819C4.00249 20.793 4.08653 20.8025 4.14384 20.8126L4.19932 20.8203C6.03129 20.9946 11.7751 21.0805 12.0186 21.084L12.026 21.0842L12.0333 21.084C12.0813 21.0838 16.8727 21.0523 20.0456 20.8216L20.0875 20.8172C20.1276 20.8119 20.1726 20.8071 20.2221 20.802C20.7395 20.7471 21.8166 20.633 22.7715 19.5823C23.567 18.7175 23.7972 17.0361 23.8206 16.8473L23.8234 16.8228C23.8305 16.7422 24.0001 14.8287 24.0001 12.9076V11.1117C23.9999 9.19059 23.8305 7.27714 23.8234 7.19658ZM22.5935 12.9076C22.5935 14.6857 22.4382 16.517 22.4236 16.6851C22.3639 17.1481 22.1213 18.212 21.7336 18.6333C21.136 19.2908 20.522 19.356 20.0738 19.4034C20.0196 19.4091 19.9694 19.4146 19.924 19.4203C16.8552 19.6422 12.2444 19.6763 12.032 19.6775C11.7938 19.6741 6.13401 19.5875 4.35789 19.4225C4.26689 19.4076 4.16856 19.3963 4.06493 19.3846C3.53923 19.3243 2.81963 19.2419 2.26629 18.6333L2.25329 18.6194C1.87243 18.2226 1.63677 17.2278 1.5769 16.6906C1.56573 16.5635 1.40643 14.7106 1.40643 12.9076V11.1117C1.40643 9.33561 1.56133 7.50639 1.57635 7.33482C1.64758 6.78935 1.89477 5.78997 2.26629 5.38604C2.88225 4.70855 3.53172 4.63348 3.96129 4.58386C4.0023 4.5791 4.04057 4.5747 4.07591 4.57012C7.18942 4.3471 11.8333 4.31396 12 4.31268C12.1666 4.31378 16.8088 4.3471 19.8947 4.57012C19.9326 4.57488 19.974 4.57964 20.0185 4.58477C20.4603 4.63513 21.1281 4.7113 21.7409 5.36498L21.7466 5.37102C22.1275 5.76781 22.3631 6.78001 22.423 7.32805C22.4336 7.44798 22.5935 9.30485 22.5935 11.1117V12.9076Z" fill="#613228"/>
    </g>
    <defs>
      <clipPath id="clip0">
        <rect width="24" height="23.9999" fill="white"/>
      </clipPath>
    </defs>
  </symbol>

  <symbol id="tg" viewBox="0 0 24 24">
    <g clip-path="url(#clip0)">
      <path d="M23.8019 3.16059C23.5668 2.87365 23.177 2.76724 22.8304 2.89493L0.815237 10.8662C0.375418 11.0264 0.0667019 11.4148 0.0093899 11.8799C-0.0473728 12.3428 0.15624 12.7919 0.538198 13.0504L3.68505 15.2028C3.98992 15.4114 4.38195 15.4338 4.70843 15.2611L11.5346 11.6544L6.21447 15.6347C5.96471 15.8216 5.81548 16.1197 5.81548 16.432V20.1189C5.81548 20.4992 6.02367 20.8476 6.35876 21.0285C6.69439 21.2094 7.09978 21.1914 7.41857 20.9808L9.80938 19.3918L12.1605 20.998C12.3664 21.1395 12.6118 21.214 12.8594 21.214C12.943 21.214 13.0271 21.2054 13.1099 21.1881C13.44 21.1191 13.732 20.9147 13.9113 20.6274L23.8717 4.17111C24.0656 3.85426 24.0378 3.44881 23.8019 3.16059ZM12.8068 19.7334L10.3721 18.07C10.2027 17.954 10.0075 17.896 9.81249 17.896C9.62169 17.896 9.43072 17.9516 9.26354 18.0628L7.22246 19.4193V16.64L16.6167 9.61172C17.0362 9.29782 17.1418 8.72651 16.8622 8.2829C16.5824 7.83928 16.0223 7.68939 15.5593 7.93413L4.27263 13.8976L1.61101 12.0771L21.8839 4.73672L12.8068 19.7334Z" fill="#613228"/>
    </g>
    <defs>
      <clipPath id="clip0">
        <rect width="24" height="24" fill="white"/>
      </clipPath>
    </defs>
  </symbol>

  <symbol id="fb" viewBox="0 0 24 25">
    <g clip-path="url(#clip0)">
      <path d="M13.6203 24H9.76944C9.12622 24 8.60298 23.4767 8.60298 22.8335V14.1476H6.35628C5.71306 14.1476 5.18982 13.6242 5.18982 12.9811V9.2592C5.18982 8.61598 5.71306 8.09274 6.35628 8.09274H8.60298V6.22893C8.60298 4.3809 9.18328 2.80862 10.2809 1.68233C11.3836 0.550911 12.9245 -0.0469971 14.7371 -0.0469971L17.674 -0.042227C18.3161 -0.0411262 18.8384 0.482113 18.8384 1.12424V4.57996C18.8384 5.22318 18.3154 5.74642 17.6723 5.74642L15.695 5.74716C15.0919 5.74716 14.9384 5.86806 14.9055 5.90512C14.8514 5.96658 14.787 6.14032 14.787 6.62008V8.09256H17.5237C17.7298 8.09256 17.9294 8.14338 18.1009 8.23915C18.4709 8.44591 18.701 8.83687 18.701 9.25939L18.6995 12.9813C18.6995 13.6242 18.1763 14.1474 17.5331 14.1474H14.787V22.8335C14.787 23.4767 14.2636 24 13.6203 24ZM10.0127 22.5902H13.3771V13.5165C13.3771 13.087 13.7266 12.7377 14.1559 12.7377H17.2898L17.2911 9.50248H14.1557C13.7264 9.50248 13.3771 9.15316 13.3771 8.72367V6.62008C13.3771 6.06932 13.433 5.44297 13.8488 4.97221C14.3511 4.4031 15.1427 4.33742 15.6946 4.33742L17.4287 4.33669V1.36714L14.736 1.36274C11.823 1.36274 10.0127 3.22746 10.0127 6.22893V8.72367C10.0127 9.15298 9.6634 9.50248 9.2341 9.50248H6.59956V12.7377H9.2341C9.6634 12.7377 10.0127 13.087 10.0127 13.5165V22.5902ZM17.6712 1.36751H17.6714H17.6712Z" fill="#613228"/>
    </g>
    <defs>
      <clipPath id="clip0">
        <rect width="24" height="24.047" fill="white"/>
      </clipPath>
    </defs>
  </symbol>

  <symbol id="chevron" viewBox="0 0 24 24">
    <path d="M22.9314 6.7876L12 14.9861L1.06863 6.7876L0 8.21243L12 17.2124L24 8.21243L22.9314 6.7876Z" fill="#613228"/>
  </symbol>

  <symbol id="inst-2" viewBox="0 0 24 24">
    <path d="M17.5034 0H6.49657C2.9143 0 0 2.9143 0 6.49657V17.5036C0 21.0857 2.9143 24 6.49657 24H17.5036C21.0857 24 24 21.0857 24 17.5036V6.49657C24 2.9143 21.0857 0 17.5034 0V0ZM22.593 17.5036C22.593 20.3098 20.3098 22.593 17.5034 22.593H6.49657C3.69012 22.593 1.40698 20.3098 1.40698 17.5036V6.49657C1.40698 3.69012 3.69012 1.40698 6.49657 1.40698H17.5036C20.3098 1.40698 22.593 3.69012 22.593 6.49657V17.5036Z" fill="white"/>
    <path d="M11.9999 5.4375C8.3814 5.4375 5.43762 8.38128 5.43762 11.9998C5.43762 15.6183 8.3814 18.5621 11.9999 18.5621C15.6184 18.5621 18.5622 15.6183 18.5622 11.9998C18.5622 8.38128 15.6184 5.4375 11.9999 5.4375ZM11.9999 17.1551C9.1574 17.1551 6.8446 14.8425 6.8446 11.9998C6.8446 9.15728 9.1574 6.84448 11.9999 6.84448C14.8426 6.84448 17.1553 9.15728 17.1553 11.9998C17.1553 14.8425 14.8426 17.1551 11.9999 17.1551Z" fill="white"/>
    <path d="M18.7192 3.10693C17.6499 3.10693 16.7802 3.97687 16.7802 5.04602C16.7802 6.11535 17.6499 6.98528 18.7192 6.98528C19.7886 6.98528 20.6585 6.11535 20.6585 5.04602C20.6585 3.97668 19.7886 3.10693 18.7192 3.10693ZM18.7192 5.57812C18.4259 5.57812 18.1871 5.33935 18.1871 5.04602C18.1871 4.7525 18.4259 4.51391 18.7192 4.51391C19.0128 4.51391 19.2515 4.7525 19.2515 5.04602C19.2515 5.33935 19.0128 5.57812 18.7192 5.57812Z" fill="white"/>
  </symbol>
</svg>
