<svg width="1440" height="900" viewBox="0 0 1440 900" fill="none" xmlns="http://www.w3.org/2000/svg">
<rect width="1440" height="900" fill="url(#paint0_linear)"/>
<path d="M0 0H553C553 0 551.456 19.4849 519.5 28C465.379 42.4214 377.451 18.3994 329 46.5C292.596 67.6135 312.858 101.308 276.5 122.5C219.986 155.44 120.648 108.093 58.5 128.5C18.7838 141.541 0 176 0 176V0Z" fill="#EDC9AB"/>
<path d="M362 862.5C411.21 854.892 438.9 882.897 488.5 878.5C596.996 868.882 618.208 757.208 723 727.5C855.756 689.865 942.292 803.015 1074.5 763.5C1177.34 732.762 1248.27 702.629 1302.5 610C1318.37 582.896 1311.05 557.447 1334 536C1351.49 519.656 1370.39 524.416 1389.5 510C1416.16 489.888 1440 441 1440 441V900H267C267 900 322.583 868.594 362 862.5Z" fill="url(#paint1_linear)"/>
<path d="M364 874C413.21 866.392 437.9 897.397 487.5 893C595.996 883.382 631.708 788.708 736.5 759C869.256 721.365 939.292 870.015 1071.5 830.5C1174.34 799.762 1263.27 747.629 1317.5 655C1333.37 627.896 1328.05 575.947 1351 554.5C1368.49 538.156 1381.39 541.416 1400.5 527C1427.16 506.888 1440 464 1440 464V900H267C267 900 324.583 880.094 364 874Z" fill="url(#paint2_linear)"/>
<defs>
<linearGradient id="paint0_linear" x1="0" y1="450" x2="1440" y2="450" gradientUnits="userSpaceOnUse">
<stop stop-color="#D7A887"/>
<stop offset="0.5" stop-color="#EDC9AB"/>
<stop offset="1" stop-color="#D3A17F"/>
</linearGradient>
<linearGradient id="paint1_linear" x1="426" y1="671" x2="1389.5" y2="1068.5" gradientUnits="userSpaceOnUse">
<stop stop-color="#EDC8AA"/>
<stop offset="1" stop-color="#D8A887"/>
</linearGradient>
<linearGradient id="paint2_linear" x1="-389.5" y1="1335.5" x2="1440" y2="514.5" gradientUnits="userSpaceOnUse">
<stop stop-color="#D7A887"/>
<stop offset="1" stop-color="#EDC9AB"/>
</linearGradient>
</defs>
</svg>
